# xmcd
#
# Track frame offsets:
#	150
#	31345
#	56995
#	87915
#	126832
#	166447
#	189765
#	212155
#
# Disc length: 3114 seconds
#
# Revision: 1
# Processed by: cddbd v1.5.1PL2 Copyright (c) Steve Scherf et al.
# Submitted via: EasyCDDAExtractor 7.0.6.1
#
DISCID=6b0c2808
DTITLE=Bobby Lounge - I Remember The Night Your Trailer Burnt Down
DYEAR=2005
DGENRE=Blues
TTITLE0=Bank Of Love
TTITLE1=Slime Weasel
TTITLE2=I Will
TTITLE3=Take Me Back To Abita Springs
TTITLE4=I Remember The Night Your Trailer Burnt Down
TTITLE5=Excuse Me Abuse Me
TTITLE6=If I Had Been Elvis
TTITLE7=I'll Always Be Better Than You
EXTD=
EXTT0=
EXTT1=
EXTT2=
EXTT3=
EXTT4=
EXTT5=
EXTT6=
EXTT7=
PLAYORDER=
